<svg width="1200" height="430" viewBox="0 0 1200 430" fill="none" xmlns="http://www.w3.org/2000/svg">
  <defs>
    <linearGradient id="bg" x1="0" y1="0" x2="1200" y2="430" gradientUnits="userSpaceOnUse">
      <stop stop-color="#020617"/>
      <stop offset="0.48" stop-color="#07111f"/>
      <stop offset="1" stop-color="#020617"/>
    </linearGradient>
    <radialGradient id="cyan" cx="0" cy="0" r="1" gradientUnits="userSpaceOnUse" gradientTransform="translate(286 105) rotate(51) scale(420 360)">
      <stop stop-color="#38BDF8" stop-opacity="0.28"/>
      <stop offset="1" stop-color="#38BDF8" stop-opacity="0"/>
    </radialGradient>
    <radialGradient id="green" cx="0" cy="0" r="1" gradientUnits="userSpaceOnUse" gradientTransform="translate(952 342) rotate(143) scale(420 300)">
      <stop stop-color="#22C55E" stop-opacity="0.22"/>
      <stop offset="1" stop-color="#22C55E" stop-opacity="0"/>
    </radialGradient>
    <pattern id="grid" width="48" height="48" patternUnits="userSpaceOnUse">
      <path d="M48 0H0V48" stroke="#1E293B" stroke-width="1" opacity="0.5"/>
    </pattern>
    <filter id="soft" x="-20%" y="-20%" width="140%" height="140%">
      <feGaussianBlur stdDeviation="10"/>
    </filter>
  </defs>

  <rect width="1200" height="430" rx="30" fill="url(#bg)"/>
  <rect width="1200" height="430" rx="30" fill="url(#grid)"/>
  <rect width="1200" height="430" rx="30" fill="url(#cyan)"/>
  <rect width="1200" height="430" rx="30" fill="url(#green)"/>

  <path d="M92 333C214 209 308 376 442 228C578 78 668 252 782 145C902 33 1002 112 1108 76" stroke="#38BDF8" stroke-width="3" stroke-linecap="round" opacity="0.62"/>
  <path d="M92 333C214 209 308 376 442 228C578 78 668 252 782 145C902 33 1002 112 1108 76" stroke="#38BDF8" stroke-width="14" stroke-linecap="round" opacity="0.15" filter="url(#soft)"/>

  <rect x="118" y="72" width="964" height="286" rx="22" fill="#020617" opacity="0.92" stroke="#1E293B" stroke-width="2"/>
  <rect x="118" y="72" width="964" height="48" rx="22" fill="#0F172A"/>
  <path d="M118 104H1082" stroke="#1E293B" stroke-width="2"/>
  <circle cx="152" cy="96" r="7" fill="#EF4444"/>
  <circle cx="178" cy="96" r="7" fill="#F59E0B"/>
  <circle cx="204" cy="96" r="7" fill="#22C55E"/>
  <text x="600" y="101" text-anchor="middle" fill="#94A3B8" font-family="Consolas, 'Courier New', monospace" font-size="15">vipul@github-profile: ~/software-engineer</text>

  <text x="164" y="158" fill="#22C55E" font-family="Consolas, 'Courier New', monospace" font-size="22" font-weight="700">$ whoami</text>
  <text x="164" y="207" fill="#F8FAFC" font-family="Segoe UI, Arial, sans-serif" font-size="58" font-weight="800">Vipul Yadav</text>
  <text x="164" y="249" fill="#38BDF8" font-family="Consolas, 'Courier New', monospace" font-size="25" font-weight="700">Software Engineer | Full-stack Developer</text>
  <text x="164" y="292" fill="#CBD5E1" font-family="Segoe UI, Arial, sans-serif" font-size="21">I build clean, reliable, user-focused web products soul.</text>

  <rect x="760" y="154" width="260" height="42" rx="21" fill="#07111F" stroke="#1E293B"/>
  <text x="890" y="182" text-anchor="middle" fill="#E2E8F0" font-family="Consolas, 'Courier New', monospace" font-size="17">React  Node  APIs</text>
  <rect x="760" y="214" width="260" height="42" rx="21" fill="#07111F" stroke="#1E293B"/>
  <text x="890" y="242" text-anchor="middle" fill="#E2E8F0" font-family="Consolas, 'Courier New', monospace" font-size="17">MongoDB  MySQL</text>
  <rect x="760" y="274" width="260" height="42" rx="21" fill="#07111F" stroke="#1E293B"/>
  <text x="890" y="302" text-anchor="middle" fill="#E2E8F0" font-family="Consolas, 'Courier New', monospace" font-size="17">GitHub  Clean Code</text>
</svg>
